<?xml version="1.0" encoding="UTF-8"?>
<svg xmlns="http://www.w3.org/2000/svg" xmlns:xlink="http://www.w3.org/1999/xlink" width="500px" height="500px" viewBox="0 0 500 500" version="1.1">
<g id="surface1">
<path style=" stroke:none;fill-rule:evenodd;fill:rgb(39.215686%,25.882353%,64.705882%);fill-opacity:1;" d="M 102.875 112.375 C 102.855469 112.757812 103.023438 113.007812 103.375 113.125 C 116.816406 126.691406 130.316406 140.234375 143.875 153.75 C 146.707031 153.832031 149.542969 153.917969 152.375 154 C 154.039062 153.769531 154.996094 154.476562 155.25 156.125 C 155.519531 157.789062 155.769531 159.453125 156 161.125 C 174.679688 179.472656 193.179688 197.972656 211.5 216.625 C 211.667969 236.457031 211.667969 256.292969 211.5 276.125 C 193.308594 276.375 175.101562 276.457031 156.875 276.375 C 156.832031 278.210938 156.875 280.042969 157 281.875 C 175.167969 300.042969 193.332031 318.207031 211.5 336.375 C 211.625 356.292969 211.667969 376.207031 211.625 396.125 C 185.875 396.167969 160.125 396.125 134.375 396 C 133 394.914062 131.75 393.707031 130.625 392.375 C 130.507812 392.023438 130.257812 391.859375 129.875 391.875 C 127.460938 389.792969 125.125 387.628906 122.875 385.375 C 122.757812 385.023438 122.507812 384.859375 122.125 384.875 C 121.375 384.292969 120.707031 383.625 120.125 382.875 C 120.007812 382.523438 119.757812 382.359375 119.375 382.375 C 118.625 381.792969 117.957031 381.125 117.375 380.375 C 117.257812 380.023438 117.007812 379.859375 116.625 379.875 C 110.46875 374.46875 104.46875 368.886719 98.625 363.125 C 98.507812 362.773438 98.257812 362.609375 97.875 362.625 C 81.695312 347.109375 65.445312 331.691406 49.125 316.375 C 49.007812 316.023438 48.757812 315.859375 48.375 315.875 C 46.769531 314.574219 45.269531 313.15625 43.875 311.625 C 43.757812 311.273438 43.507812 311.109375 43.125 311.125 C 41.519531 309.824219 40.019531 308.40625 38.625 306.875 C 38.507812 306.523438 38.257812 306.359375 37.875 306.375 C 34.734375 303.574219 31.609375 300.738281 28.5 297.875 C 28.273438 234.875 28.355469 171.875 28.75 108.875 C 28.792969 107.578125 28.917969 106.328125 29.125 105.125 C 29.507812 105.144531 29.757812 104.976562 29.875 104.625 C 31.363281 104.4375 32.863281 104.3125 34.375 104.25 C 44.375 104.207031 54.375 104.167969 64.375 104.125 C 75.710938 104.09375 87.046875 104.21875 98.375 104.5 C 99.070312 104.515625 99.609375 104.808594 100 105.375 C 100.359375 106.6875 100.609375 108.019531 100.75 109.375 C 101.398438 110.425781 102.109375 111.425781 102.875 112.375 Z M 102.875 112.375 "/>
<path style=" stroke:none;fill-rule:evenodd;fill:rgb(69.019608%,61.176471%,81.960784%);fill-opacity:1;" d="M 29.875 104.625 C 29.757812 104.976562 29.507812 105.144531 29.125 105.125 C 29.242188 104.773438 29.492188 104.605469 29.875 104.625 Z M 29.875 104.625 "/>
<path style=" stroke:none;fill-rule:evenodd;fill:rgb(94.117647%,94.117647%,94.117647%);fill-opacity:1;" d="M 34.375 109.625 C 54.375 109.625 74.375 109.625 94.375 109.625 C 94.332031 123.457031 94.375 137.292969 94.5 151.125 C 94.636719 153.542969 94.800781 155.960938 95 158.375 C 95.125 158.5 95.25 158.625 95.375 158.75 C 98.863281 159.054688 102.363281 159.222656 105.875 159.25 C 120.457031 159.375 135.042969 159.417969 149.625 159.375 C 149.625 177.542969 149.625 195.707031 149.625 213.875 C 133.707031 213.832031 117.792969 213.875 101.875 214 C 100.125 214.082031 98.375 214.167969 96.625 214.25 C 96 214.273438 95.457031 214.480469 95 214.875 C 94.71875 218.035156 94.550781 221.203125 94.5 224.375 C 94.261719 242.46875 94.472656 260.550781 95.125 278.625 C 96.625 278.726562 98.125 278.851562 99.625 279 C 116.292969 279.125 132.957031 279.167969 149.625 279.125 C 149.625 297.375 149.625 315.625 149.625 333.875 C 125.292969 333.917969 100.957031 333.875 76.625 333.75 C 62.664062 320.914062 48.664062 308.121094 34.625 295.375 C 34.375 233.457031 34.292969 171.542969 34.375 109.625 Z M 34.375 109.625 "/>
<path style=" stroke:none;fill-rule:evenodd;fill:rgb(70.196078%,62.352941%,82.352941%);fill-opacity:1;" d="M 102.875 112.375 C 103.226562 112.492188 103.394531 112.742188 103.375 113.125 C 103.023438 113.007812 102.855469 112.757812 102.875 112.375 Z M 102.875 112.375 "/>
<path style=" stroke:none;fill-rule:evenodd;fill:rgb(93.72549%,93.72549%,94.117647%);fill-opacity:1;" d="M 342.125 147.875 C 379.113281 146.933594 410.238281 159.851562 435.5 186.625 C 459.832031 214.550781 469.5 246.964844 464.5 283.875 C 457.703125 321.542969 437.828125 349.917969 404.875 369 C 374.644531 384.914062 343.230469 387.746094 310.625 377.5 C 275.324219 364.863281 250.863281 341.074219 237.25 306.125 C 226.746094 275.625 227.996094 245.625 241 216.125 C 257.804688 181.824219 284.761719 160.035156 321.875 150.75 C 328.589844 149.277344 335.339844 148.316406 342.125 147.875 Z M 342.125 147.875 "/>
<path style=" stroke:none;fill-rule:evenodd;fill:rgb(39.607843%,25.882353%,64.705882%);fill-opacity:1;" d="M 339.875 150.875 C 372 149.289062 400.167969 158.914062 424.375 179.75 C 451.238281 204.574219 464.03125 235.367188 462.75 272.125 C 459.578125 311.03125 441.871094 341.238281 409.625 362.75 C 379.859375 380.761719 348.191406 385.09375 314.625 375.75 C 282.324219 365.164062 258.699219 344.621094 243.75 314.125 C 231.246094 286.113281 229.746094 257.53125 239.25 228.375 C 252.019531 193.6875 275.726562 169.898438 310.375 157 C 319.976562 153.6875 329.808594 151.648438 339.875 150.875 Z M 339.875 150.875 "/>
<path style=" stroke:none;fill-rule:evenodd;fill:rgb(92.941176%,92.54902%,93.72549%);fill-opacity:1;" d="M 341.875 157.625 C 371.746094 156.59375 397.914062 165.800781 420.375 185.25 C 447.453125 210.898438 459.078125 242.355469 455.25 279.625 C 450.042969 313.527344 433.085938 339.652344 404.375 358 C 393.210938 364.761719 381.210938 369.386719 368.375 371.875 C 367.398438 362.722656 362.566406 356.597656 353.875 353.5 C 343.957031 351.148438 336.167969 354.191406 330.5 362.625 C 328.808594 365.484375 327.851562 368.566406 327.625 371.875 C 294.578125 364.761719 269.703125 346.59375 253 317.375 C 238.03125 288.351562 235.949219 258.433594 246.75 227.625 C 259.234375 196.640625 281.109375 175.265625 312.375 163.5 C 321.972656 160.171875 331.808594 158.214844 341.875 157.625 Z M 341.875 157.625 "/>
<path style=" stroke:none;fill-rule:evenodd;fill:rgb(39.215686%,25.490196%,64.705882%);fill-opacity:1;" d="M 340.625 160.625 C 375.898438 159.222656 405.191406 171.636719 428.5 197.875 C 449.941406 224.488281 457.359375 254.65625 450.75 288.375 C 442.425781 322.109375 422.636719 346.484375 391.375 361.5 C 384.96875 364.496094 378.300781 366.703125 371.375 368.125 C 370.914062 367.953125 370.621094 367.621094 370.5 367.125 C 367.789062 358.078125 361.828125 352.453125 352.625 350.25 C 340.691406 348.695312 331.984375 353.238281 326.5 363.875 C 325.941406 365.164062 325.523438 366.496094 325.25 367.875 C 325.027344 368.019531 324.777344 368.101562 324.5 368.125 C 292.515625 360.136719 268.933594 341.550781 253.75 312.375 C 241.980469 287.808594 239.730469 262.390625 247 236.125 C 256.933594 204.628906 276.976562 182.171875 307.125 168.75 C 317.898438 164.308594 329.066406 161.597656 340.625 160.625 Z M 340.625 160.625 "/>
<path style=" stroke:none;fill-rule:evenodd;fill:rgb(94.117647%,94.117647%,94.117647%);fill-opacity:1;" d="M 345.125 187.125 C 354.753906 186.5 361.046875 190.75 364 199.875 C 365.101562 208.300781 361.890625 214.425781 354.375 218.25 C 346.300781 221.085938 339.675781 219.128906 334.5 212.375 C 331.273438 206.859375 331.023438 201.191406 333.75 195.375 C 336.398438 191.011719 340.191406 188.261719 345.125 187.125 Z M 345.125 187.125 "/>
<path style=" stroke:none;fill-rule:evenodd;fill:rgb(94.117647%,94.117647%,94.117647%);fill-opacity:1;" d="M 301.375 205.375 C 309.273438 204.742188 315.066406 207.910156 318.75 214.875 C 321.761719 223.34375 319.636719 230.21875 312.375 235.5 C 304.566406 239.539062 297.609375 238.414062 291.5 232.125 C 286.453125 225.265625 286.367188 218.347656 291.25 211.375 C 293.984375 208.238281 297.359375 206.238281 301.375 205.375 Z M 301.375 205.375 "/>
<path style=" stroke:none;fill-rule:evenodd;fill:rgb(94.117647%,94.117647%,94.117647%);fill-opacity:1;" d="M 389.625 205.375 C 397.710938 204.84375 403.585938 208.175781 407.25 215.375 C 409.789062 223.671875 407.578125 230.382812 400.625 235.5 C 391.382812 239.96875 383.839844 238.011719 378 229.625 C 373.808594 220.351562 375.933594 212.894531 384.375 207.25 C 386.074219 206.394531 387.824219 205.769531 389.625 205.375 Z M 389.625 205.375 "/>
<path style=" stroke:none;fill-rule:evenodd;fill:rgb(94.117647%,94.117647%,94.117647%);fill-opacity:1;" d="M 282.375 249.625 C 292.742188 248.78125 299.199219 253.363281 301.75 263.375 C 302.378906 270.667969 299.585938 276.210938 293.375 280 C 284.136719 283.890625 276.761719 281.683594 271.25 273.375 C 267.460938 264.328125 269.585938 257.035156 277.625 251.5 C 279.1875 250.746094 280.769531 250.121094 282.375 249.625 Z M 282.375 249.625 "/>
<path style=" stroke:none;fill-rule:evenodd;fill:rgb(94.117647%,94.117647%,94.117647%);fill-opacity:1;" d="M 407.125 249.625 C 416.746094 248.714844 423.121094 252.800781 426.25 261.875 C 427.640625 270.304688 424.597656 276.511719 417.125 280.5 C 411.003906 282.949219 405.335938 282.199219 400.125 278.25 C 393.546875 271.984375 392.421875 264.859375 396.75 256.875 C 399.359375 253.21875 402.816406 250.800781 407.125 249.625 Z M 407.125 249.625 "/>
<path style=" stroke:none;fill-rule:evenodd;fill:rgb(70.588235%,63.137255%,82.745098%);fill-opacity:1;" d="M 37.875 306.375 C 38.257812 306.359375 38.507812 306.523438 38.625 306.875 C 38.242188 306.890625 37.992188 306.726562 37.875 306.375 Z M 37.875 306.375 "/>
<path style=" stroke:none;fill-rule:evenodd;fill:rgb(70.588235%,63.137255%,82.745098%);fill-opacity:1;" d="M 43.125 311.125 C 43.507812 311.109375 43.757812 311.273438 43.875 311.625 C 43.492188 311.640625 43.242188 311.476562 43.125 311.125 Z M 43.125 311.125 "/>
<path style=" stroke:none;fill-rule:evenodd;fill:rgb(70.980392%,63.529412%,83.137255%);fill-opacity:1;" d="M 48.375 315.875 C 48.757812 315.859375 49.007812 316.023438 49.125 316.375 C 48.742188 316.390625 48.492188 316.226562 48.375 315.875 Z M 48.375 315.875 "/>
<path style=" stroke:none;fill-rule:evenodd;fill:rgb(70.980392%,63.529412%,83.137255%);fill-opacity:1;" d="M 97.875 362.625 C 98.257812 362.609375 98.507812 362.773438 98.625 363.125 C 98.242188 363.140625 97.992188 362.976562 97.875 362.625 Z M 97.875 362.625 "/>
<path style=" stroke:none;fill-rule:evenodd;fill:rgb(69.803922%,62.352941%,82.352941%);fill-opacity:1;" d="M 116.625 379.875 C 117.007812 379.859375 117.257812 380.023438 117.375 380.375 C 116.992188 380.390625 116.742188 380.226562 116.625 379.875 Z M 116.625 379.875 "/>
<path style=" stroke:none;fill-rule:evenodd;fill:rgb(70.588235%,63.137255%,82.745098%);fill-opacity:1;" d="M 119.375 382.375 C 119.757812 382.359375 120.007812 382.523438 120.125 382.875 C 119.742188 382.890625 119.492188 382.726562 119.375 382.375 Z M 119.375 382.375 "/>
<path style=" stroke:none;fill-rule:evenodd;fill:rgb(70.980392%,63.529412%,83.137255%);fill-opacity:1;" d="M 122.125 384.875 C 122.507812 384.859375 122.757812 385.023438 122.875 385.375 C 122.492188 385.390625 122.242188 385.226562 122.125 384.875 Z M 122.125 384.875 "/>
<path style=" stroke:none;fill-rule:evenodd;fill:rgb(70.588235%,63.137255%,82.745098%);fill-opacity:1;" d="M 129.875 391.875 C 130.257812 391.859375 130.507812 392.023438 130.625 392.375 C 130.242188 392.390625 129.992188 392.226562 129.875 391.875 Z M 129.875 391.875 "/>
</g>
</svg>
